<?xml version="1.0" encoding="UTF-8"?>
<svg xmlns="http://www.w3.org/2000/svg" viewBox="0 0 7985 78" width="780" height="8" shape-rendering="crispEdges">
  <defs>
    <linearGradient id="g" x1="18" y1="0" x2="7967" y2="0" gradientUnits="userSpaceOnUse" color-interpolation="linearRGB">
      <stop offset="0%" stop-color="#2193b0"/>
      <stop offset="6%" stop-color="#2e9cb9"/>
      <stop offset="20%" stop-color="#3aa5c1"/>
      <stop offset="39%" stop-color="#45afca"/>
      <stop offset="61%" stop-color="#4fb8d3"/>
      <stop offset="80%" stop-color="#59c2db"/>
      <stop offset="94%" stop-color="#63cbe4"/>
      <stop offset="100%" stop-color="#6dd5ed"/>
    </linearGradient>
    <linearGradient id="gs" x1="18" y1="0" x2="7967" y2="0" gradientUnits="userSpaceOnUse" color-interpolation="linearRGB">
      <stop offset="0%" stop-color="#104754"/>
      <stop offset="6%" stop-color="#164b58"/>
      <stop offset="20%" stop-color="#1b505c"/>
      <stop offset="39%" stop-color="#205461"/>
      <stop offset="61%" stop-color="#255965"/>
      <stop offset="80%" stop-color="#2a5d69"/>
      <stop offset="94%" stop-color="#2f616e"/>
      <stop offset="100%" stop-color="#346672"/>
    </linearGradient>
  </defs>
  <g fill="url(#gs)">
    <rect x="263" y="39" width="1" height="1"/><rect x="264" y="38" width="1" height="1"/><rect x="265" y="37" width="1" height="1"/><rect x="266" y="36" width="1" height="1"/><rect x="267" y="35" width="1" height="1"/><rect x="268" y="34" width="1" height="1"/><rect x="269" y="33" width="1" height="1"/><rect x="270" y="32" width="1" height="1"/><rect x="271" y="31" width="1" height="1"/>
    <rect x="542" y="20" width="9" height="20"/>
    <rect x="551" y="20" width="9" height="10"/>
    <rect x="560" y="20" width="9" height="20"/>
    <rect x="578" y="39" width="1" height="1"/><rect x="579" y="38" width="1" height="1"/><rect x="580" y="37" width="1" height="1"/><rect x="581" y="36" width="1" height="1"/><rect x="582" y="35" width="1" height="1"/><rect x="583" y="34" width="1" height="1"/><rect x="584" y="33" width="1" height="1"/><rect x="585" y="32" width="1" height="1"/><rect x="586" y="31" width="1" height="1"/>
    <rect x="875" y="39" width="1" height="1"/><rect x="876" y="38" width="1" height="1"/><rect x="877" y="37" width="1" height="1"/><rect x="878" y="36" width="1" height="1"/><rect x="879" y="35" width="1" height="1"/><rect x="880" y="34" width="1" height="1"/><rect x="881" y="33" width="1" height="1"/><rect x="882" y="32" width="1" height="1"/><rect x="883" y="31" width="1" height="1"/>
    <rect x="1154" y="20" width="9" height="20"/>
    <rect x="1163" y="20" width="9" height="10"/>
    <rect x="1172" y="20" width="9" height="10"/>
    <rect x="1190" y="39" width="1" height="1"/><rect x="1191" y="38" width="1" height="1"/><rect x="1192" y="37" width="1" height="1"/><rect x="1193" y="36" width="1" height="1"/><rect x="1194" y="35" width="1" height="1"/><rect x="1195" y="34" width="1" height="1"/><rect x="1196" y="33" width="1" height="1"/><rect x="1197" y="32" width="1" height="1"/><rect x="1198" y="31" width="1" height="1"/>
    <rect x="1487" y="39" width="1" height="1"/><rect x="1488" y="38" width="1" height="1"/><rect x="1489" y="37" width="1" height="1"/><rect x="1490" y="36" width="1" height="1"/><rect x="1491" y="35" width="1" height="1"/><rect x="1492" y="34" width="1" height="1"/><rect x="1493" y="33" width="1" height="1"/><rect x="1494" y="32" width="1" height="1"/><rect x="1495" y="31" width="1" height="1"/>
    <rect x="1766" y="20" width="9" height="20"/>
    <rect x="1775" y="20" width="9" height="10"/>
    <rect x="1784" y="20" width="9" height="20"/>
    <rect x="1802" y="39" width="1" height="1"/><rect x="1803" y="38" width="1" height="1"/><rect x="1804" y="37" width="1" height="1"/><rect x="1805" y="36" width="1" height="1"/><rect x="1806" y="35" width="1" height="1"/><rect x="1807" y="34" width="1" height="1"/><rect x="1808" y="33" width="1" height="1"/><rect x="1809" y="32" width="1" height="1"/><rect x="1810" y="31" width="1" height="1"/>
    <rect x="2099" y="39" width="1" height="1"/><rect x="2100" y="38" width="1" height="1"/><rect x="2101" y="37" width="1" height="1"/><rect x="2102" y="36" width="1" height="1"/><rect x="2103" y="35" width="1" height="1"/><rect x="2104" y="34" width="1" height="1"/><rect x="2105" y="33" width="1" height="1"/><rect x="2106" y="32" width="1" height="1"/><rect x="2107" y="31" width="1" height="1"/>
    <rect x="2378" y="20" width="9" height="20"/>
    <rect x="2387" y="20" width="9" height="10"/>
    <rect x="2396" y="20" width="9" height="20"/>
    <rect x="2414" y="39" width="1" height="1"/><rect x="2415" y="38" width="1" height="1"/><rect x="2416" y="37" width="1" height="1"/><rect x="2417" y="36" width="1" height="1"/><rect x="2418" y="35" width="1" height="1"/><rect x="2419" y="34" width="1" height="1"/><rect x="2420" y="33" width="1" height="1"/><rect x="2421" y="32" width="1" height="1"/><rect x="2422" y="31" width="1" height="1"/>
    <rect x="2711" y="39" width="1" height="1"/><rect x="2712" y="38" width="1" height="1"/><rect x="2713" y="37" width="1" height="1"/><rect x="2714" y="36" width="1" height="1"/><rect x="2715" y="35" width="1" height="1"/><rect x="2716" y="34" width="1" height="1"/><rect x="2717" y="33" width="1" height="1"/><rect x="2718" y="32" width="1" height="1"/><rect x="2719" y="31" width="1" height="1"/>
    <rect x="2990" y="30" width="9" height="10"/>
    <rect x="2999" y="30" width="9" height="10"/>
    <rect x="3017" y="39" width="1" height="1"/><rect x="3018" y="38" width="1" height="1"/><rect x="3019" y="37" width="1" height="1"/><rect x="3020" y="36" width="1" height="1"/><rect x="3021" y="35" width="1" height="1"/><rect x="3022" y="34" width="1" height="1"/><rect x="3023" y="33" width="1" height="1"/><rect x="3024" y="32" width="1" height="1"/><rect x="3025" y="31" width="1" height="1"/>
    <rect x="3314" y="39" width="1" height="1"/><rect x="3315" y="38" width="1" height="1"/><rect x="3316" y="37" width="1" height="1"/><rect x="3317" y="36" width="1" height="1"/><rect x="3318" y="35" width="1" height="1"/><rect x="3319" y="34" width="1" height="1"/><rect x="3320" y="33" width="1" height="1"/><rect x="3321" y="32" width="1" height="1"/><rect x="3322" y="31" width="1" height="1"/>
    <rect x="3593" y="20" width="9" height="20"/>
    <rect x="3602" y="20" width="9" height="10"/>
    <rect x="3611" y="20" width="9" height="10"/>
    <rect x="3629" y="39" width="1" height="1"/><rect x="3630" y="38" width="1" height="1"/><rect x="3631" y="37" width="1" height="1"/><rect x="3632" y="36" width="1" height="1"/><rect x="3633" y="35" width="1" height="1"/><rect x="3634" y="34" width="1" height="1"/><rect x="3635" y="33" width="1" height="1"/><rect x="3636" y="32" width="1" height="1"/><rect x="3637" y="31" width="1" height="1"/>
    <rect x="3926" y="39" width="1" height="1"/><rect x="3927" y="38" width="1" height="1"/><rect x="3928" y="37" width="1" height="1"/><rect x="3929" y="36" width="1" height="1"/><rect x="3930" y="35" width="1" height="1"/><rect x="3931" y="34" width="1" height="1"/><rect x="3932" y="33" width="1" height="1"/><rect x="3933" y="32" width="1" height="1"/><rect x="3934" y="31" width="1" height="1"/>
    <rect x="4205" y="20" width="9" height="20"/>
    <rect x="4214" y="20" width="9" height="10"/>
    <rect x="4223" y="20" width="9" height="10"/>
    <rect x="4241" y="39" width="1" height="1"/><rect x="4242" y="38" width="1" height="1"/><rect x="4243" y="37" width="1" height="1"/><rect x="4244" y="36" width="1" height="1"/><rect x="4245" y="35" width="1" height="1"/><rect x="4246" y="34" width="1" height="1"/><rect x="4247" y="33" width="1" height="1"/><rect x="4248" y="32" width="1" height="1"/><rect x="4249" y="31" width="1" height="1"/>
    <rect x="4538" y="39" width="1" height="1"/><rect x="4539" y="38" width="1" height="1"/><rect x="4540" y="37" width="1" height="1"/><rect x="4541" y="36" width="1" height="1"/><rect x="4542" y="35" width="1" height="1"/><rect x="4543" y="34" width="1" height="1"/><rect x="4544" y="33" width="1" height="1"/><rect x="4545" y="32" width="1" height="1"/><rect x="4546" y="31" width="1" height="1"/>
    <rect x="4817" y="30" width="9" height="10"/>
    <rect x="4826" y="20" width="9" height="10"/>
    <rect x="4835" y="20" width="9" height="20"/>
    <rect x="4853" y="39" width="1" height="1"/><rect x="4854" y="38" width="1" height="1"/><rect x="4855" y="37" width="1" height="1"/><rect x="4856" y="36" width="1" height="1"/><rect x="4857" y="35" width="1" height="1"/><rect x="4858" y="34" width="1" height="1"/><rect x="4859" y="33" width="1" height="1"/><rect x="4860" y="32" width="1" height="1"/><rect x="4861" y="31" width="1" height="1"/>
    <rect x="5150" y="39" width="1" height="1"/><rect x="5151" y="38" width="1" height="1"/><rect x="5152" y="37" width="1" height="1"/><rect x="5153" y="36" width="1" height="1"/><rect x="5154" y="35" width="1" height="1"/><rect x="5155" y="34" width="1" height="1"/><rect x="5156" y="33" width="1" height="1"/><rect x="5157" y="32" width="1" height="1"/><rect x="5158" y="31" width="1" height="1"/>
    <rect x="5429" y="20" width="9" height="20"/>
    <rect x="5438" y="20" width="9" height="10"/>
    <rect x="5447" y="20" width="9" height="10"/>
    <rect x="5465" y="39" width="1" height="1"/><rect x="5466" y="38" width="1" height="1"/><rect x="5467" y="37" width="1" height="1"/><rect x="5468" y="36" width="1" height="1"/><rect x="5469" y="35" width="1" height="1"/><rect x="5470" y="34" width="1" height="1"/><rect x="5471" y="33" width="1" height="1"/><rect x="5472" y="32" width="1" height="1"/><rect x="5473" y="31" width="1" height="1"/>
    <rect x="5762" y="39" width="1" height="1"/><rect x="5763" y="38" width="1" height="1"/><rect x="5764" y="37" width="1" height="1"/><rect x="5765" y="36" width="1" height="1"/><rect x="5766" y="35" width="1" height="1"/><rect x="5767" y="34" width="1" height="1"/><rect x="5768" y="33" width="1" height="1"/><rect x="5769" y="32" width="1" height="1"/><rect x="5770" y="31" width="1" height="1"/>
    <rect x="6041" y="20" width="9" height="20"/>
    <rect x="6050" y="20" width="9" height="10"/>
    <rect x="6059" y="20" width="9" height="10"/>
    <rect x="6077" y="39" width="1" height="1"/><rect x="6078" y="38" width="1" height="1"/><rect x="6079" y="37" width="1" height="1"/><rect x="6080" y="36" width="1" height="1"/><rect x="6081" y="35" width="1" height="1"/><rect x="6082" y="34" width="1" height="1"/><rect x="6083" y="33" width="1" height="1"/><rect x="6084" y="32" width="1" height="1"/><rect x="6085" y="31" width="1" height="1"/>
    <rect x="6374" y="39" width="1" height="1"/><rect x="6375" y="38" width="1" height="1"/><rect x="6376" y="37" width="1" height="1"/><rect x="6377" y="36" width="1" height="1"/><rect x="6378" y="35" width="1" height="1"/><rect x="6379" y="34" width="1" height="1"/><rect x="6380" y="33" width="1" height="1"/><rect x="6381" y="32" width="1" height="1"/><rect x="6382" y="31" width="1" height="1"/>
    <rect x="6653" y="20" width="9" height="20"/>
    <rect x="6662" y="20" width="9" height="10"/>
    <rect x="6671" y="20" width="9" height="20"/>
    <rect x="6689" y="39" width="1" height="1"/><rect x="6690" y="38" width="1" height="1"/><rect x="6691" y="37" width="1" height="1"/><rect x="6692" y="36" width="1" height="1"/><rect x="6693" y="35" width="1" height="1"/><rect x="6694" y="34" width="1" height="1"/><rect x="6695" y="33" width="1" height="1"/><rect x="6696" y="32" width="1" height="1"/><rect x="6697" y="31" width="1" height="1"/>
    <rect x="6986" y="39" width="1" height="1"/><rect x="6987" y="38" width="1" height="1"/><rect x="6988" y="37" width="1" height="1"/><rect x="6989" y="36" width="1" height="1"/><rect x="6990" y="35" width="1" height="1"/><rect x="6991" y="34" width="1" height="1"/><rect x="6992" y="33" width="1" height="1"/><rect x="6993" y="32" width="1" height="1"/><rect x="6994" y="31" width="1" height="1"/>
    <rect x="7265" y="20" width="9" height="20"/>
    <rect x="7301" y="39" width="1" height="1"/><rect x="7302" y="38" width="1" height="1"/><rect x="7303" y="37" width="1" height="1"/><rect x="7304" y="36" width="1" height="1"/><rect x="7305" y="35" width="1" height="1"/><rect x="7306" y="34" width="1" height="1"/><rect x="7307" y="33" width="1" height="1"/><rect x="7308" y="32" width="1" height="1"/><rect x="7309" y="31" width="1" height="1"/>
    <rect x="7598" y="39" width="1" height="1"/><rect x="7599" y="38" width="1" height="1"/><rect x="7600" y="37" width="1" height="1"/><rect x="7601" y="36" width="1" height="1"/><rect x="7602" y="35" width="1" height="1"/><rect x="7603" y="34" width="1" height="1"/><rect x="7604" y="33" width="1" height="1"/><rect x="7605" y="32" width="1" height="1"/><rect x="7606" y="31" width="1" height="1"/>
    <rect x="7877" y="20" width="9" height="20"/>
    <rect x="7886" y="20" width="9" height="10"/>
    <rect x="7895" y="30" width="9" height="10"/>
    <rect x="7913" y="39" width="1" height="1"/><rect x="7914" y="38" width="1" height="1"/><rect x="7915" y="37" width="1" height="1"/><rect x="7916" y="36" width="1" height="1"/><rect x="7917" y="35" width="1" height="1"/><rect x="7918" y="34" width="1" height="1"/><rect x="7919" y="33" width="1" height="1"/><rect x="7920" y="32" width="1" height="1"/><rect x="7921" y="31" width="1" height="1"/>
    <rect x="263" y="59" width="1" height="1"/><rect x="264" y="58" width="1" height="1"/><rect x="265" y="57" width="1" height="1"/><rect x="266" y="56" width="1" height="1"/><rect x="267" y="55" width="1" height="1"/><rect x="268" y="54" width="1" height="1"/><rect x="269" y="53" width="1" height="1"/><rect x="270" y="52" width="1" height="1"/><rect x="271" y="51" width="1" height="1"/>
    <rect x="542" y="40" width="9" height="20"/>
    <rect x="551" y="40" width="9" height="10"/>
    <rect x="560" y="50" width="9" height="10"/>
    <rect x="578" y="59" width="1" height="1"/><rect x="579" y="58" width="1" height="1"/><rect x="580" y="57" width="1" height="1"/><rect x="581" y="56" width="1" height="1"/><rect x="582" y="55" width="1" height="1"/><rect x="583" y="54" width="1" height="1"/><rect x="584" y="53" width="1" height="1"/><rect x="585" y="52" width="1" height="1"/><rect x="586" y="51" width="1" height="1"/>
    <rect x="875" y="59" width="1" height="1"/><rect x="876" y="58" width="1" height="1"/><rect x="877" y="57" width="1" height="1"/><rect x="878" y="56" width="1" height="1"/><rect x="879" y="55" width="1" height="1"/><rect x="880" y="54" width="1" height="1"/><rect x="881" y="53" width="1" height="1"/><rect x="882" y="52" width="1" height="1"/><rect x="883" y="51" width="1" height="1"/>
    <rect x="1154" y="40" width="9" height="20"/>
    <rect x="1163" y="40" width="9" height="20"/>
    <rect x="1172" y="50" width="9" height="10"/>
    <rect x="1190" y="59" width="1" height="1"/><rect x="1191" y="58" width="1" height="1"/><rect x="1192" y="57" width="1" height="1"/><rect x="1193" y="56" width="1" height="1"/><rect x="1194" y="55" width="1" height="1"/><rect x="1195" y="54" width="1" height="1"/><rect x="1196" y="53" width="1" height="1"/><rect x="1197" y="52" width="1" height="1"/><rect x="1198" y="51" width="1" height="1"/>
    <rect x="1487" y="59" width="1" height="1"/><rect x="1488" y="58" width="1" height="1"/><rect x="1489" y="57" width="1" height="1"/><rect x="1490" y="56" width="1" height="1"/><rect x="1491" y="55" width="1" height="1"/><rect x="1492" y="54" width="1" height="1"/><rect x="1493" y="53" width="1" height="1"/><rect x="1494" y="52" width="1" height="1"/><rect x="1495" y="51" width="1" height="1"/>
    <rect x="1766" y="40" width="9" height="20"/>
    <rect x="1775" y="40" width="9" height="10"/>
    <rect x="1784" y="40" width="9" height="10"/>
    <rect x="1802" y="59" width="1" height="1"/><rect x="1803" y="58" width="1" height="1"/><rect x="1804" y="57" width="1" height="1"/><rect x="1805" y="56" width="1" height="1"/><rect x="1806" y="55" width="1" height="1"/><rect x="1807" y="54" width="1" height="1"/><rect x="1808" y="53" width="1" height="1"/><rect x="1809" y="52" width="1" height="1"/><rect x="1810" y="51" width="1" height="1"/>
    <rect x="2099" y="59" width="1" height="1"/><rect x="2100" y="58" width="1" height="1"/><rect x="2101" y="57" width="1" height="1"/><rect x="2102" y="56" width="1" height="1"/><rect x="2103" y="55" width="1" height="1"/><rect x="2104" y="54" width="1" height="1"/><rect x="2105" y="53" width="1" height="1"/><rect x="2106" y="52" width="1" height="1"/><rect x="2107" y="51" width="1" height="1"/>
    <rect x="2378" y="40" width="9" height="20"/>
    <rect x="2387" y="50" width="9" height="10"/>
    <rect x="2396" y="40" width="9" height="20"/>
    <rect x="2414" y="59" width="1" height="1"/><rect x="2415" y="58" width="1" height="1"/><rect x="2416" y="57" width="1" height="1"/><rect x="2417" y="56" width="1" height="1"/><rect x="2418" y="55" width="1" height="1"/><rect x="2419" y="54" width="1" height="1"/><rect x="2420" y="53" width="1" height="1"/><rect x="2421" y="52" width="1" height="1"/><rect x="2422" y="51" width="1" height="1"/>
    <rect x="2711" y="59" width="1" height="1"/><rect x="2712" y="58" width="1" height="1"/><rect x="2713" y="57" width="1" height="1"/><rect x="2714" y="56" width="1" height="1"/><rect x="2715" y="55" width="1" height="1"/><rect x="2716" y="54" width="1" height="1"/><rect x="2717" y="53" width="1" height="1"/><rect x="2718" y="52" width="1" height="1"/><rect x="2719" y="51" width="1" height="1"/>
    <rect x="3017" y="59" width="1" height="1"/><rect x="3018" y="58" width="1" height="1"/><rect x="3019" y="57" width="1" height="1"/><rect x="3020" y="56" width="1" height="1"/><rect x="3021" y="55" width="1" height="1"/><rect x="3022" y="54" width="1" height="1"/><rect x="3023" y="53" width="1" height="1"/><rect x="3024" y="52" width="1" height="1"/><rect x="3025" y="51" width="1" height="1"/>
    <rect x="3314" y="59" width="1" height="1"/><rect x="3315" y="58" width="1" height="1"/><rect x="3316" y="57" width="1" height="1"/><rect x="3317" y="56" width="1" height="1"/><rect x="3318" y="55" width="1" height="1"/><rect x="3319" y="54" width="1" height="1"/><rect x="3320" y="53" width="1" height="1"/><rect x="3321" y="52" width="1" height="1"/><rect x="3322" y="51" width="1" height="1"/>
    <rect x="3593" y="50" width="9" height="10"/>
    <rect x="3602" y="50" width="9" height="10"/>
    <rect x="3611" y="40" width="9" height="20"/>
    <rect x="3629" y="59" width="1" height="1"/><rect x="3630" y="58" width="1" height="1"/><rect x="3631" y="57" width="1" height="1"/><rect x="3632" y="56" width="1" height="1"/><rect x="3633" y="55" width="1" height="1"/><rect x="3634" y="54" width="1" height="1"/><rect x="3635" y="53" width="1" height="1"/><rect x="3636" y="52" width="1" height="1"/><rect x="3637" y="51" width="1" height="1"/>
    <rect x="3926" y="59" width="1" height="1"/><rect x="3927" y="58" width="1" height="1"/><rect x="3928" y="57" width="1" height="1"/><rect x="3929" y="56" width="1" height="1"/><rect x="3930" y="55" width="1" height="1"/><rect x="3931" y="54" width="1" height="1"/><rect x="3932" y="53" width="1" height="1"/><rect x="3933" y="52" width="1" height="1"/><rect x="3934" y="51" width="1" height="1"/>
    <rect x="4205" y="40" width="9" height="20"/>
    <rect x="4214" y="50" width="9" height="10"/>
    <rect x="4223" y="50" width="9" height="10"/>
    <rect x="4241" y="59" width="1" height="1"/><rect x="4242" y="58" width="1" height="1"/><rect x="4243" y="57" width="1" height="1"/><rect x="4244" y="56" width="1" height="1"/><rect x="4245" y="55" width="1" height="1"/><rect x="4246" y="54" width="1" height="1"/><rect x="4247" y="53" width="1" height="1"/><rect x="4248" y="52" width="1" height="1"/><rect x="4249" y="51" width="1" height="1"/>
    <rect x="4538" y="59" width="1" height="1"/><rect x="4539" y="58" width="1" height="1"/><rect x="4540" y="57" width="1" height="1"/><rect x="4541" y="56" width="1" height="1"/><rect x="4542" y="55" width="1" height="1"/><rect x="4543" y="54" width="1" height="1"/><rect x="4544" y="53" width="1" height="1"/><rect x="4545" y="52" width="1" height="1"/><rect x="4546" y="51" width="1" height="1"/>
    <rect x="4817" y="40" width="9" height="20"/>
    <rect x="4826" y="40" width="9" height="10"/>
    <rect x="4835" y="40" width="9" height="20"/>
    <rect x="4853" y="59" width="1" height="1"/><rect x="4854" y="58" width="1" height="1"/><rect x="4855" y="57" width="1" height="1"/><rect x="4856" y="56" width="1" height="1"/><rect x="4857" y="55" width="1" height="1"/><rect x="4858" y="54" width="1" height="1"/><rect x="4859" y="53" width="1" height="1"/><rect x="4860" y="52" width="1" height="1"/><rect x="4861" y="51" width="1" height="1"/>
    <rect x="5150" y="59" width="1" height="1"/><rect x="5151" y="58" width="1" height="1"/><rect x="5152" y="57" width="1" height="1"/><rect x="5153" y="56" width="1" height="1"/><rect x="5154" y="55" width="1" height="1"/><rect x="5155" y="54" width="1" height="1"/><rect x="5156" y="53" width="1" height="1"/><rect x="5157" y="52" width="1" height="1"/><rect x="5158" y="51" width="1" height="1"/>
    <rect x="5429" y="40" width="9" height="20"/>
    <rect x="5438" y="40" width="9" height="10"/>
    <rect x="5465" y="59" width="1" height="1"/><rect x="5466" y="58" width="1" height="1"/><rect x="5467" y="57" width="1" height="1"/><rect x="5468" y="56" width="1" height="1"/><rect x="5469" y="55" width="1" height="1"/><rect x="5470" y="54" width="1" height="1"/><rect x="5471" y="53" width="1" height="1"/><rect x="5472" y="52" width="1" height="1"/><rect x="5473" y="51" width="1" height="1"/>
    <rect x="5762" y="59" width="1" height="1"/><rect x="5763" y="58" width="1" height="1"/><rect x="5764" y="57" width="1" height="1"/><rect x="5765" y="56" width="1" height="1"/><rect x="5766" y="55" width="1" height="1"/><rect x="5767" y="54" width="1" height="1"/><rect x="5768" y="53" width="1" height="1"/><rect x="5769" y="52" width="1" height="1"/><rect x="5770" y="51" width="1" height="1"/>
    <rect x="6041" y="40" width="9" height="20"/>
    <rect x="6050" y="40" width="9" height="10"/>
    <rect x="6077" y="59" width="1" height="1"/><rect x="6078" y="58" width="1" height="1"/><rect x="6079" y="57" width="1" height="1"/><rect x="6080" y="56" width="1" height="1"/><rect x="6081" y="55" width="1" height="1"/><rect x="6082" y="54" width="1" height="1"/><rect x="6083" y="53" width="1" height="1"/><rect x="6084" y="52" width="1" height="1"/><rect x="6085" y="51" width="1" height="1"/>
    <rect x="6374" y="59" width="1" height="1"/><rect x="6375" y="58" width="1" height="1"/><rect x="6376" y="57" width="1" height="1"/><rect x="6377" y="56" width="1" height="1"/><rect x="6378" y="55" width="1" height="1"/><rect x="6379" y="54" width="1" height="1"/><rect x="6380" y="53" width="1" height="1"/><rect x="6381" y="52" width="1" height="1"/><rect x="6382" y="51" width="1" height="1"/>
    <rect x="6653" y="40" width="9" height="20"/>
    <rect x="6662" y="50" width="9" height="10"/>
    <rect x="6671" y="40" width="9" height="20"/>
    <rect x="6689" y="59" width="1" height="1"/><rect x="6690" y="58" width="1" height="1"/><rect x="6691" y="57" width="1" height="1"/><rect x="6692" y="56" width="1" height="1"/><rect x="6693" y="55" width="1" height="1"/><rect x="6694" y="54" width="1" height="1"/><rect x="6695" y="53" width="1" height="1"/><rect x="6696" y="52" width="1" height="1"/><rect x="6697" y="51" width="1" height="1"/>
    <rect x="6986" y="59" width="1" height="1"/><rect x="6987" y="58" width="1" height="1"/><rect x="6988" y="57" width="1" height="1"/><rect x="6989" y="56" width="1" height="1"/><rect x="6990" y="55" width="1" height="1"/><rect x="6991" y="54" width="1" height="1"/><rect x="6992" y="53" width="1" height="1"/><rect x="6993" y="52" width="1" height="1"/><rect x="6994" y="51" width="1" height="1"/>
    <rect x="7265" y="40" width="9" height="20"/>
    <rect x="7274" y="50" width="9" height="10"/>
    <rect x="7283" y="50" width="9" height="10"/>
    <rect x="7301" y="59" width="1" height="1"/><rect x="7302" y="58" width="1" height="1"/><rect x="7303" y="57" width="1" height="1"/><rect x="7304" y="56" width="1" height="1"/><rect x="7305" y="55" width="1" height="1"/><rect x="7306" y="54" width="1" height="1"/><rect x="7307" y="53" width="1" height="1"/><rect x="7308" y="52" width="1" height="1"/><rect x="7309" y="51" width="1" height="1"/>
    <rect x="7598" y="59" width="1" height="1"/><rect x="7599" y="58" width="1" height="1"/><rect x="7600" y="57" width="1" height="1"/><rect x="7601" y="56" width="1" height="1"/><rect x="7602" y="55" width="1" height="1"/><rect x="7603" y="54" width="1" height="1"/><rect x="7604" y="53" width="1" height="1"/><rect x="7605" y="52" width="1" height="1"/><rect x="7606" y="51" width="1" height="1"/>
    <rect x="7877" y="40" width="9" height="20"/>
    <rect x="7886" y="50" width="9" height="10"/>
    <rect x="7895" y="40" width="9" height="10"/>
    <rect x="7913" y="59" width="1" height="1"/><rect x="7914" y="58" width="1" height="1"/><rect x="7915" y="57" width="1" height="1"/><rect x="7916" y="56" width="1" height="1"/><rect x="7917" y="55" width="1" height="1"/><rect x="7918" y="54" width="1" height="1"/><rect x="7919" y="53" width="1" height="1"/><rect x="7920" y="52" width="1" height="1"/><rect x="7921" y="51" width="1" height="1"/>
  </g>
  <g fill="url(#g)">
    <rect x="261" y="37" width="1" height="1"/><rect x="262" y="36" width="1" height="1"/><rect x="263" y="35" width="1" height="1"/><rect x="264" y="34" width="1" height="1"/><rect x="265" y="33" width="1" height="1"/><rect x="266" y="32" width="1" height="1"/><rect x="267" y="31" width="1" height="1"/><rect x="268" y="30" width="1" height="1"/><rect x="269" y="29" width="1" height="1"/>
    <rect x="540" y="18" width="9" height="20"/>
    <rect x="549" y="18" width="9" height="10"/>
    <rect x="558" y="18" width="9" height="20"/>
    <rect x="576" y="37" width="1" height="1"/><rect x="577" y="36" width="1" height="1"/><rect x="578" y="35" width="1" height="1"/><rect x="579" y="34" width="1" height="1"/><rect x="580" y="33" width="1" height="1"/><rect x="581" y="32" width="1" height="1"/><rect x="582" y="31" width="1" height="1"/><rect x="583" y="30" width="1" height="1"/><rect x="584" y="29" width="1" height="1"/>
    <rect x="873" y="37" width="1" height="1"/><rect x="874" y="36" width="1" height="1"/><rect x="875" y="35" width="1" height="1"/><rect x="876" y="34" width="1" height="1"/><rect x="877" y="33" width="1" height="1"/><rect x="878" y="32" width="1" height="1"/><rect x="879" y="31" width="1" height="1"/><rect x="880" y="30" width="1" height="1"/><rect x="881" y="29" width="1" height="1"/>
    <rect x="1152" y="18" width="9" height="20"/>
    <rect x="1161" y="18" width="9" height="10"/>
    <rect x="1170" y="18" width="9" height="10"/>
    <rect x="1188" y="37" width="1" height="1"/><rect x="1189" y="36" width="1" height="1"/><rect x="1190" y="35" width="1" height="1"/><rect x="1191" y="34" width="1" height="1"/><rect x="1192" y="33" width="1" height="1"/><rect x="1193" y="32" width="1" height="1"/><rect x="1194" y="31" width="1" height="1"/><rect x="1195" y="30" width="1" height="1"/><rect x="1196" y="29" width="1" height="1"/>
    <rect x="1485" y="37" width="1" height="1"/><rect x="1486" y="36" width="1" height="1"/><rect x="1487" y="35" width="1" height="1"/><rect x="1488" y="34" width="1" height="1"/><rect x="1489" y="33" width="1" height="1"/><rect x="1490" y="32" width="1" height="1"/><rect x="1491" y="31" width="1" height="1"/><rect x="1492" y="30" width="1" height="1"/><rect x="1493" y="29" width="1" height="1"/>
    <rect x="1764" y="18" width="9" height="20"/>
    <rect x="1773" y="18" width="9" height="10"/>
    <rect x="1782" y="18" width="9" height="20"/>
    <rect x="1800" y="37" width="1" height="1"/><rect x="1801" y="36" width="1" height="1"/><rect x="1802" y="35" width="1" height="1"/><rect x="1803" y="34" width="1" height="1"/><rect x="1804" y="33" width="1" height="1"/><rect x="1805" y="32" width="1" height="1"/><rect x="1806" y="31" width="1" height="1"/><rect x="1807" y="30" width="1" height="1"/><rect x="1808" y="29" width="1" height="1"/>
    <rect x="2097" y="37" width="1" height="1"/><rect x="2098" y="36" width="1" height="1"/><rect x="2099" y="35" width="1" height="1"/><rect x="2100" y="34" width="1" height="1"/><rect x="2101" y="33" width="1" height="1"/><rect x="2102" y="32" width="1" height="1"/><rect x="2103" y="31" width="1" height="1"/><rect x="2104" y="30" width="1" height="1"/><rect x="2105" y="29" width="1" height="1"/>
    <rect x="2376" y="18" width="9" height="20"/>
    <rect x="2385" y="18" width="9" height="10"/>
    <rect x="2394" y="18" width="9" height="20"/>
    <rect x="2412" y="37" width="1" height="1"/><rect x="2413" y="36" width="1" height="1"/><rect x="2414" y="35" width="1" height="1"/><rect x="2415" y="34" width="1" height="1"/><rect x="2416" y="33" width="1" height="1"/><rect x="2417" y="32" width="1" height="1"/><rect x="2418" y="31" width="1" height="1"/><rect x="2419" y="30" width="1" height="1"/><rect x="2420" y="29" width="1" height="1"/>
    <rect x="2709" y="37" width="1" height="1"/><rect x="2710" y="36" width="1" height="1"/><rect x="2711" y="35" width="1" height="1"/><rect x="2712" y="34" width="1" height="1"/><rect x="2713" y="33" width="1" height="1"/><rect x="2714" y="32" width="1" height="1"/><rect x="2715" y="31" width="1" height="1"/><rect x="2716" y="30" width="1" height="1"/><rect x="2717" y="29" width="1" height="1"/>
    <rect x="2988" y="28" width="9" height="10"/>
    <rect x="2997" y="28" width="9" height="10"/>
    <rect x="3015" y="37" width="1" height="1"/><rect x="3016" y="36" width="1" height="1"/><rect x="3017" y="35" width="1" height="1"/><rect x="3018" y="34" width="1" height="1"/><rect x="3019" y="33" width="1" height="1"/><rect x="3020" y="32" width="1" height="1"/><rect x="3021" y="31" width="1" height="1"/><rect x="3022" y="30" width="1" height="1"/><rect x="3023" y="29" width="1" height="1"/>
    <rect x="3312" y="37" width="1" height="1"/><rect x="3313" y="36" width="1" height="1"/><rect x="3314" y="35" width="1" height="1"/><rect x="3315" y="34" width="1" height="1"/><rect x="3316" y="33" width="1" height="1"/><rect x="3317" y="32" width="1" height="1"/><rect x="3318" y="31" width="1" height="1"/><rect x="3319" y="30" width="1" height="1"/><rect x="3320" y="29" width="1" height="1"/>
    <rect x="3591" y="18" width="9" height="20"/>
    <rect x="3600" y="18" width="9" height="10"/>
    <rect x="3609" y="18" width="9" height="10"/>
    <rect x="3627" y="37" width="1" height="1"/><rect x="3628" y="36" width="1" height="1"/><rect x="3629" y="35" width="1" height="1"/><rect x="3630" y="34" width="1" height="1"/><rect x="3631" y="33" width="1" height="1"/><rect x="3632" y="32" width="1" height="1"/><rect x="3633" y="31" width="1" height="1"/><rect x="3634" y="30" width="1" height="1"/><rect x="3635" y="29" width="1" height="1"/>
    <rect x="3924" y="37" width="1" height="1"/><rect x="3925" y="36" width="1" height="1"/><rect x="3926" y="35" width="1" height="1"/><rect x="3927" y="34" width="1" height="1"/><rect x="3928" y="33" width="1" height="1"/><rect x="3929" y="32" width="1" height="1"/><rect x="3930" y="31" width="1" height="1"/><rect x="3931" y="30" width="1" height="1"/><rect x="3932" y="29" width="1" height="1"/>
    <rect x="4203" y="18" width="9" height="20"/>
    <rect x="4212" y="18" width="9" height="10"/>
    <rect x="4221" y="18" width="9" height="10"/>
    <rect x="4239" y="37" width="1" height="1"/><rect x="4240" y="36" width="1" height="1"/><rect x="4241" y="35" width="1" height="1"/><rect x="4242" y="34" width="1" height="1"/><rect x="4243" y="33" width="1" height="1"/><rect x="4244" y="32" width="1" height="1"/><rect x="4245" y="31" width="1" height="1"/><rect x="4246" y="30" width="1" height="1"/><rect x="4247" y="29" width="1" height="1"/>
    <rect x="4536" y="37" width="1" height="1"/><rect x="4537" y="36" width="1" height="1"/><rect x="4538" y="35" width="1" height="1"/><rect x="4539" y="34" width="1" height="1"/><rect x="4540" y="33" width="1" height="1"/><rect x="4541" y="32" width="1" height="1"/><rect x="4542" y="31" width="1" height="1"/><rect x="4543" y="30" width="1" height="1"/><rect x="4544" y="29" width="1" height="1"/>
    <rect x="4815" y="28" width="9" height="10"/>
    <rect x="4824" y="18" width="9" height="10"/>
    <rect x="4833" y="18" width="9" height="20"/>
    <rect x="4851" y="37" width="1" height="1"/><rect x="4852" y="36" width="1" height="1"/><rect x="4853" y="35" width="1" height="1"/><rect x="4854" y="34" width="1" height="1"/><rect x="4855" y="33" width="1" height="1"/><rect x="4856" y="32" width="1" height="1"/><rect x="4857" y="31" width="1" height="1"/><rect x="4858" y="30" width="1" height="1"/><rect x="4859" y="29" width="1" height="1"/>
    <rect x="5148" y="37" width="1" height="1"/><rect x="5149" y="36" width="1" height="1"/><rect x="5150" y="35" width="1" height="1"/><rect x="5151" y="34" width="1" height="1"/><rect x="5152" y="33" width="1" height="1"/><rect x="5153" y="32" width="1" height="1"/><rect x="5154" y="31" width="1" height="1"/><rect x="5155" y="30" width="1" height="1"/><rect x="5156" y="29" width="1" height="1"/>
    <rect x="5427" y="18" width="9" height="20"/>
    <rect x="5436" y="18" width="9" height="10"/>
    <rect x="5445" y="18" width="9" height="10"/>
    <rect x="5463" y="37" width="1" height="1"/><rect x="5464" y="36" width="1" height="1"/><rect x="5465" y="35" width="1" height="1"/><rect x="5466" y="34" width="1" height="1"/><rect x="5467" y="33" width="1" height="1"/><rect x="5468" y="32" width="1" height="1"/><rect x="5469" y="31" width="1" height="1"/><rect x="5470" y="30" width="1" height="1"/><rect x="5471" y="29" width="1" height="1"/>
    <rect x="5760" y="37" width="1" height="1"/><rect x="5761" y="36" width="1" height="1"/><rect x="5762" y="35" width="1" height="1"/><rect x="5763" y="34" width="1" height="1"/><rect x="5764" y="33" width="1" height="1"/><rect x="5765" y="32" width="1" height="1"/><rect x="5766" y="31" width="1" height="1"/><rect x="5767" y="30" width="1" height="1"/><rect x="5768" y="29" width="1" height="1"/>
    <rect x="6039" y="18" width="9" height="20"/>
    <rect x="6048" y="18" width="9" height="10"/>
    <rect x="6057" y="18" width="9" height="10"/>
    <rect x="6075" y="37" width="1" height="1"/><rect x="6076" y="36" width="1" height="1"/><rect x="6077" y="35" width="1" height="1"/><rect x="6078" y="34" width="1" height="1"/><rect x="6079" y="33" width="1" height="1"/><rect x="6080" y="32" width="1" height="1"/><rect x="6081" y="31" width="1" height="1"/><rect x="6082" y="30" width="1" height="1"/><rect x="6083" y="29" width="1" height="1"/>
    <rect x="6372" y="37" width="1" height="1"/><rect x="6373" y="36" width="1" height="1"/><rect x="6374" y="35" width="1" height="1"/><rect x="6375" y="34" width="1" height="1"/><rect x="6376" y="33" width="1" height="1"/><rect x="6377" y="32" width="1" height="1"/><rect x="6378" y="31" width="1" height="1"/><rect x="6379" y="30" width="1" height="1"/><rect x="6380" y="29" width="1" height="1"/>
    <rect x="6651" y="18" width="9" height="20"/>
    <rect x="6660" y="18" width="9" height="10"/>
    <rect x="6669" y="18" width="9" height="20"/>
    <rect x="6687" y="37" width="1" height="1"/><rect x="6688" y="36" width="1" height="1"/><rect x="6689" y="35" width="1" height="1"/><rect x="6690" y="34" width="1" height="1"/><rect x="6691" y="33" width="1" height="1"/><rect x="6692" y="32" width="1" height="1"/><rect x="6693" y="31" width="1" height="1"/><rect x="6694" y="30" width="1" height="1"/><rect x="6695" y="29" width="1" height="1"/>
    <rect x="6984" y="37" width="1" height="1"/><rect x="6985" y="36" width="1" height="1"/><rect x="6986" y="35" width="1" height="1"/><rect x="6987" y="34" width="1" height="1"/><rect x="6988" y="33" width="1" height="1"/><rect x="6989" y="32" width="1" height="1"/><rect x="6990" y="31" width="1" height="1"/><rect x="6991" y="30" width="1" height="1"/><rect x="6992" y="29" width="1" height="1"/>
    <rect x="7263" y="18" width="9" height="20"/>
    <rect x="7299" y="37" width="1" height="1"/><rect x="7300" y="36" width="1" height="1"/><rect x="7301" y="35" width="1" height="1"/><rect x="7302" y="34" width="1" height="1"/><rect x="7303" y="33" width="1" height="1"/><rect x="7304" y="32" width="1" height="1"/><rect x="7305" y="31" width="1" height="1"/><rect x="7306" y="30" width="1" height="1"/><rect x="7307" y="29" width="1" height="1"/>
    <rect x="7596" y="37" width="1" height="1"/><rect x="7597" y="36" width="1" height="1"/><rect x="7598" y="35" width="1" height="1"/><rect x="7599" y="34" width="1" height="1"/><rect x="7600" y="33" width="1" height="1"/><rect x="7601" y="32" width="1" height="1"/><rect x="7602" y="31" width="1" height="1"/><rect x="7603" y="30" width="1" height="1"/><rect x="7604" y="29" width="1" height="1"/>
    <rect x="7875" y="18" width="9" height="20"/>
    <rect x="7884" y="18" width="9" height="10"/>
    <rect x="7893" y="28" width="9" height="10"/>
    <rect x="7911" y="37" width="1" height="1"/><rect x="7912" y="36" width="1" height="1"/><rect x="7913" y="35" width="1" height="1"/><rect x="7914" y="34" width="1" height="1"/><rect x="7915" y="33" width="1" height="1"/><rect x="7916" y="32" width="1" height="1"/><rect x="7917" y="31" width="1" height="1"/><rect x="7918" y="30" width="1" height="1"/><rect x="7919" y="29" width="1" height="1"/>
    <rect x="261" y="57" width="1" height="1"/><rect x="262" y="56" width="1" height="1"/><rect x="263" y="55" width="1" height="1"/><rect x="264" y="54" width="1" height="1"/><rect x="265" y="53" width="1" height="1"/><rect x="266" y="52" width="1" height="1"/><rect x="267" y="51" width="1" height="1"/><rect x="268" y="50" width="1" height="1"/><rect x="269" y="49" width="1" height="1"/>
    <rect x="540" y="38" width="9" height="20"/>
    <rect x="549" y="38" width="9" height="10"/>
    <rect x="558" y="48" width="9" height="10"/>
    <rect x="576" y="57" width="1" height="1"/><rect x="577" y="56" width="1" height="1"/><rect x="578" y="55" width="1" height="1"/><rect x="579" y="54" width="1" height="1"/><rect x="580" y="53" width="1" height="1"/><rect x="581" y="52" width="1" height="1"/><rect x="582" y="51" width="1" height="1"/><rect x="583" y="50" width="1" height="1"/><rect x="584" y="49" width="1" height="1"/>
    <rect x="873" y="57" width="1" height="1"/><rect x="874" y="56" width="1" height="1"/><rect x="875" y="55" width="1" height="1"/><rect x="876" y="54" width="1" height="1"/><rect x="877" y="53" width="1" height="1"/><rect x="878" y="52" width="1" height="1"/><rect x="879" y="51" width="1" height="1"/><rect x="880" y="50" width="1" height="1"/><rect x="881" y="49" width="1" height="1"/>
    <rect x="1152" y="38" width="9" height="20"/>
    <rect x="1161" y="38" width="9" height="20"/>
    <rect x="1170" y="48" width="9" height="10"/>
    <rect x="1188" y="57" width="1" height="1"/><rect x="1189" y="56" width="1" height="1"/><rect x="1190" y="55" width="1" height="1"/><rect x="1191" y="54" width="1" height="1"/><rect x="1192" y="53" width="1" height="1"/><rect x="1193" y="52" width="1" height="1"/><rect x="1194" y="51" width="1" height="1"/><rect x="1195" y="50" width="1" height="1"/><rect x="1196" y="49" width="1" height="1"/>
    <rect x="1485" y="57" width="1" height="1"/><rect x="1486" y="56" width="1" height="1"/><rect x="1487" y="55" width="1" height="1"/><rect x="1488" y="54" width="1" height="1"/><rect x="1489" y="53" width="1" height="1"/><rect x="1490" y="52" width="1" height="1"/><rect x="1491" y="51" width="1" height="1"/><rect x="1492" y="50" width="1" height="1"/><rect x="1493" y="49" width="1" height="1"/>
    <rect x="1764" y="38" width="9" height="20"/>
    <rect x="1773" y="38" width="9" height="10"/>
    <rect x="1782" y="38" width="9" height="10"/>
    <rect x="1800" y="57" width="1" height="1"/><rect x="1801" y="56" width="1" height="1"/><rect x="1802" y="55" width="1" height="1"/><rect x="1803" y="54" width="1" height="1"/><rect x="1804" y="53" width="1" height="1"/><rect x="1805" y="52" width="1" height="1"/><rect x="1806" y="51" width="1" height="1"/><rect x="1807" y="50" width="1" height="1"/><rect x="1808" y="49" width="1" height="1"/>
    <rect x="2097" y="57" width="1" height="1"/><rect x="2098" y="56" width="1" height="1"/><rect x="2099" y="55" width="1" height="1"/><rect x="2100" y="54" width="1" height="1"/><rect x="2101" y="53" width="1" height="1"/><rect x="2102" y="52" width="1" height="1"/><rect x="2103" y="51" width="1" height="1"/><rect x="2104" y="50" width="1" height="1"/><rect x="2105" y="49" width="1" height="1"/>
    <rect x="2376" y="38" width="9" height="20"/>
    <rect x="2385" y="48" width="9" height="10"/>
    <rect x="2394" y="38" width="9" height="20"/>
    <rect x="2412" y="57" width="1" height="1"/><rect x="2413" y="56" width="1" height="1"/><rect x="2414" y="55" width="1" height="1"/><rect x="2415" y="54" width="1" height="1"/><rect x="2416" y="53" width="1" height="1"/><rect x="2417" y="52" width="1" height="1"/><rect x="2418" y="51" width="1" height="1"/><rect x="2419" y="50" width="1" height="1"/><rect x="2420" y="49" width="1" height="1"/>
    <rect x="2709" y="57" width="1" height="1"/><rect x="2710" y="56" width="1" height="1"/><rect x="2711" y="55" width="1" height="1"/><rect x="2712" y="54" width="1" height="1"/><rect x="2713" y="53" width="1" height="1"/><rect x="2714" y="52" width="1" height="1"/><rect x="2715" y="51" width="1" height="1"/><rect x="2716" y="50" width="1" height="1"/><rect x="2717" y="49" width="1" height="1"/>
    <rect x="3015" y="57" width="1" height="1"/><rect x="3016" y="56" width="1" height="1"/><rect x="3017" y="55" width="1" height="1"/><rect x="3018" y="54" width="1" height="1"/><rect x="3019" y="53" width="1" height="1"/><rect x="3020" y="52" width="1" height="1"/><rect x="3021" y="51" width="1" height="1"/><rect x="3022" y="50" width="1" height="1"/><rect x="3023" y="49" width="1" height="1"/>
    <rect x="3312" y="57" width="1" height="1"/><rect x="3313" y="56" width="1" height="1"/><rect x="3314" y="55" width="1" height="1"/><rect x="3315" y="54" width="1" height="1"/><rect x="3316" y="53" width="1" height="1"/><rect x="3317" y="52" width="1" height="1"/><rect x="3318" y="51" width="1" height="1"/><rect x="3319" y="50" width="1" height="1"/><rect x="3320" y="49" width="1" height="1"/>
    <rect x="3591" y="48" width="9" height="10"/>
    <rect x="3600" y="48" width="9" height="10"/>
    <rect x="3609" y="38" width="9" height="20"/>
    <rect x="3627" y="57" width="1" height="1"/><rect x="3628" y="56" width="1" height="1"/><rect x="3629" y="55" width="1" height="1"/><rect x="3630" y="54" width="1" height="1"/><rect x="3631" y="53" width="1" height="1"/><rect x="3632" y="52" width="1" height="1"/><rect x="3633" y="51" width="1" height="1"/><rect x="3634" y="50" width="1" height="1"/><rect x="3635" y="49" width="1" height="1"/>
    <rect x="3924" y="57" width="1" height="1"/><rect x="3925" y="56" width="1" height="1"/><rect x="3926" y="55" width="1" height="1"/><rect x="3927" y="54" width="1" height="1"/><rect x="3928" y="53" width="1" height="1"/><rect x="3929" y="52" width="1" height="1"/><rect x="3930" y="51" width="1" height="1"/><rect x="3931" y="50" width="1" height="1"/><rect x="3932" y="49" width="1" height="1"/>
    <rect x="4203" y="38" width="9" height="20"/>
    <rect x="4212" y="48" width="9" height="10"/>
    <rect x="4221" y="48" width="9" height="10"/>
    <rect x="4239" y="57" width="1" height="1"/><rect x="4240" y="56" width="1" height="1"/><rect x="4241" y="55" width="1" height="1"/><rect x="4242" y="54" width="1" height="1"/><rect x="4243" y="53" width="1" height="1"/><rect x="4244" y="52" width="1" height="1"/><rect x="4245" y="51" width="1" height="1"/><rect x="4246" y="50" width="1" height="1"/><rect x="4247" y="49" width="1" height="1"/>
    <rect x="4536" y="57" width="1" height="1"/><rect x="4537" y="56" width="1" height="1"/><rect x="4538" y="55" width="1" height="1"/><rect x="4539" y="54" width="1" height="1"/><rect x="4540" y="53" width="1" height="1"/><rect x="4541" y="52" width="1" height="1"/><rect x="4542" y="51" width="1" height="1"/><rect x="4543" y="50" width="1" height="1"/><rect x="4544" y="49" width="1" height="1"/>
    <rect x="4815" y="38" width="9" height="20"/>
    <rect x="4824" y="38" width="9" height="10"/>
    <rect x="4833" y="38" width="9" height="20"/>
    <rect x="4851" y="57" width="1" height="1"/><rect x="4852" y="56" width="1" height="1"/><rect x="4853" y="55" width="1" height="1"/><rect x="4854" y="54" width="1" height="1"/><rect x="4855" y="53" width="1" height="1"/><rect x="4856" y="52" width="1" height="1"/><rect x="4857" y="51" width="1" height="1"/><rect x="4858" y="50" width="1" height="1"/><rect x="4859" y="49" width="1" height="1"/>
    <rect x="5148" y="57" width="1" height="1"/><rect x="5149" y="56" width="1" height="1"/><rect x="5150" y="55" width="1" height="1"/><rect x="5151" y="54" width="1" height="1"/><rect x="5152" y="53" width="1" height="1"/><rect x="5153" y="52" width="1" height="1"/><rect x="5154" y="51" width="1" height="1"/><rect x="5155" y="50" width="1" height="1"/><rect x="5156" y="49" width="1" height="1"/>
    <rect x="5427" y="38" width="9" height="20"/>
    <rect x="5436" y="38" width="9" height="10"/>
    <rect x="5463" y="57" width="1" height="1"/><rect x="5464" y="56" width="1" height="1"/><rect x="5465" y="55" width="1" height="1"/><rect x="5466" y="54" width="1" height="1"/><rect x="5467" y="53" width="1" height="1"/><rect x="5468" y="52" width="1" height="1"/><rect x="5469" y="51" width="1" height="1"/><rect x="5470" y="50" width="1" height="1"/><rect x="5471" y="49" width="1" height="1"/>
    <rect x="5760" y="57" width="1" height="1"/><rect x="5761" y="56" width="1" height="1"/><rect x="5762" y="55" width="1" height="1"/><rect x="5763" y="54" width="1" height="1"/><rect x="5764" y="53" width="1" height="1"/><rect x="5765" y="52" width="1" height="1"/><rect x="5766" y="51" width="1" height="1"/><rect x="5767" y="50" width="1" height="1"/><rect x="5768" y="49" width="1" height="1"/>
    <rect x="6039" y="38" width="9" height="20"/>
    <rect x="6048" y="38" width="9" height="10"/>
    <rect x="6075" y="57" width="1" height="1"/><rect x="6076" y="56" width="1" height="1"/><rect x="6077" y="55" width="1" height="1"/><rect x="6078" y="54" width="1" height="1"/><rect x="6079" y="53" width="1" height="1"/><rect x="6080" y="52" width="1" height="1"/><rect x="6081" y="51" width="1" height="1"/><rect x="6082" y="50" width="1" height="1"/><rect x="6083" y="49" width="1" height="1"/>
    <rect x="6372" y="57" width="1" height="1"/><rect x="6373" y="56" width="1" height="1"/><rect x="6374" y="55" width="1" height="1"/><rect x="6375" y="54" width="1" height="1"/><rect x="6376" y="53" width="1" height="1"/><rect x="6377" y="52" width="1" height="1"/><rect x="6378" y="51" width="1" height="1"/><rect x="6379" y="50" width="1" height="1"/><rect x="6380" y="49" width="1" height="1"/>
    <rect x="6651" y="38" width="9" height="20"/>
    <rect x="6660" y="48" width="9" height="10"/>
    <rect x="6669" y="38" width="9" height="20"/>
    <rect x="6687" y="57" width="1" height="1"/><rect x="6688" y="56" width="1" height="1"/><rect x="6689" y="55" width="1" height="1"/><rect x="6690" y="54" width="1" height="1"/><rect x="6691" y="53" width="1" height="1"/><rect x="6692" y="52" width="1" height="1"/><rect x="6693" y="51" width="1" height="1"/><rect x="6694" y="50" width="1" height="1"/><rect x="6695" y="49" width="1" height="1"/>
    <rect x="6984" y="57" width="1" height="1"/><rect x="6985" y="56" width="1" height="1"/><rect x="6986" y="55" width="1" height="1"/><rect x="6987" y="54" width="1" height="1"/><rect x="6988" y="53" width="1" height="1"/><rect x="6989" y="52" width="1" height="1"/><rect x="6990" y="51" width="1" height="1"/><rect x="6991" y="50" width="1" height="1"/><rect x="6992" y="49" width="1" height="1"/>
    <rect x="7263" y="38" width="9" height="20"/>
    <rect x="7272" y="48" width="9" height="10"/>
    <rect x="7281" y="48" width="9" height="10"/>
    <rect x="7299" y="57" width="1" height="1"/><rect x="7300" y="56" width="1" height="1"/><rect x="7301" y="55" width="1" height="1"/><rect x="7302" y="54" width="1" height="1"/><rect x="7303" y="53" width="1" height="1"/><rect x="7304" y="52" width="1" height="1"/><rect x="7305" y="51" width="1" height="1"/><rect x="7306" y="50" width="1" height="1"/><rect x="7307" y="49" width="1" height="1"/>
    <rect x="7596" y="57" width="1" height="1"/><rect x="7597" y="56" width="1" height="1"/><rect x="7598" y="55" width="1" height="1"/><rect x="7599" y="54" width="1" height="1"/><rect x="7600" y="53" width="1" height="1"/><rect x="7601" y="52" width="1" height="1"/><rect x="7602" y="51" width="1" height="1"/><rect x="7603" y="50" width="1" height="1"/><rect x="7604" y="49" width="1" height="1"/>
    <rect x="7875" y="38" width="9" height="20"/>
    <rect x="7884" y="48" width="9" height="10"/>
    <rect x="7893" y="38" width="9" height="10"/>
    <rect x="7911" y="57" width="1" height="1"/><rect x="7912" y="56" width="1" height="1"/><rect x="7913" y="55" width="1" height="1"/><rect x="7914" y="54" width="1" height="1"/><rect x="7915" y="53" width="1" height="1"/><rect x="7916" y="52" width="1" height="1"/><rect x="7917" y="51" width="1" height="1"/><rect x="7918" y="50" width="1" height="1"/><rect x="7919" y="49" width="1" height="1"/>
  </g>
</svg>
